<mxfile host="app.diagrams.net" modified="2023-05-19T16:43:45.169Z" agent="Mozilla/5.0 (Windows NT 10.0; Win64; x64) AppleWebKit/537.36 (KHTML, like Gecko) Chrome/113.0.0.0 Safari/537.36" etag="ySZRGbsV66cazzeCpdZG" version="21.3.2" type="device">
  <diagram name="P치gina-1" id="5AUVLAZYxCnt0QFyrIkY">
    <mxGraphModel dx="2150" dy="902" grid="1" gridSize="10" guides="1" tooltips="1" connect="1" arrows="1" fold="1" page="1" pageScale="1" pageWidth="827" pageHeight="1169" math="0" shadow="0">
      <root>
        <mxCell id="0" />
        <mxCell id="1" parent="0" />
        <mxCell id="yRoRjuL11nitNJYhxqnK-1" value="" style="ellipse;html=1;shape=startState;fillColor=#000000;strokeColor=#ff0000;" parent="1" vertex="1">
          <mxGeometry x="384" y="20" width="30" height="30" as="geometry" />
        </mxCell>
        <mxCell id="yRoRjuL11nitNJYhxqnK-2" value="" style="edgeStyle=orthogonalEdgeStyle;html=1;verticalAlign=bottom;endArrow=open;endSize=8;strokeColor=#ff0000;rounded=0;entryX=0.5;entryY=0;entryDx=0;entryDy=0;" parent="1" source="yRoRjuL11nitNJYhxqnK-1" target="yRoRjuL11nitNJYhxqnK-3" edge="1">
          <mxGeometry relative="1" as="geometry">
            <mxPoint x="399" y="110" as="targetPoint" />
          </mxGeometry>
        </mxCell>
        <mxCell id="yRoRjuL11nitNJYhxqnK-3" value="Inicio sesi칩n" style="rounded=1;whiteSpace=wrap;html=1;arcSize=40;fontColor=#000000;fillColor=#ffffc0;strokeColor=#ff0000;" parent="1" vertex="1">
          <mxGeometry x="339" y="115" width="120" height="40" as="geometry" />
        </mxCell>
        <mxCell id="yRoRjuL11nitNJYhxqnK-4" value="" style="edgeStyle=orthogonalEdgeStyle;html=1;verticalAlign=bottom;endArrow=open;endSize=8;strokeColor=#ff0000;rounded=0;entryX=0.5;entryY=0;entryDx=0;entryDy=0;" parent="1" source="yRoRjuL11nitNJYhxqnK-3" target="yRoRjuL11nitNJYhxqnK-5" edge="1">
          <mxGeometry relative="1" as="geometry">
            <mxPoint x="399" y="220" as="targetPoint" />
          </mxGeometry>
        </mxCell>
        <mxCell id="yRoRjuL11nitNJYhxqnK-5" value="Existe la &lt;br&gt;cuenta?" style="rhombus;whiteSpace=wrap;html=1;fontColor=#000000;fillColor=#ffffc0;strokeColor=#ff0000;" parent="1" vertex="1">
          <mxGeometry x="349" y="200" width="101" height="70" as="geometry" />
        </mxCell>
        <mxCell id="yRoRjuL11nitNJYhxqnK-6" value="no" style="edgeStyle=orthogonalEdgeStyle;html=1;align=left;verticalAlign=bottom;endArrow=open;endSize=8;strokeColor=#ff0000;rounded=0;entryX=0;entryY=0.5;entryDx=0;entryDy=0;" parent="1" source="yRoRjuL11nitNJYhxqnK-5" target="yRoRjuL11nitNJYhxqnK-12" edge="1">
          <mxGeometry x="-1" relative="1" as="geometry">
            <mxPoint x="500" y="250" as="targetPoint" />
          </mxGeometry>
        </mxCell>
        <mxCell id="yRoRjuL11nitNJYhxqnK-7" value="yes" style="edgeStyle=orthogonalEdgeStyle;html=1;align=left;verticalAlign=top;endArrow=open;endSize=8;strokeColor=#ff0000;rounded=0;exitX=0;exitY=0.5;exitDx=0;exitDy=0;entryX=0.5;entryY=0;entryDx=0;entryDy=0;" parent="1" source="yRoRjuL11nitNJYhxqnK-5" target="yRoRjuL11nitNJYhxqnK-16" edge="1">
          <mxGeometry x="-0.8" y="-27" relative="1" as="geometry">
            <mxPoint x="360" y="330" as="targetPoint" />
            <Array as="points">
              <mxPoint x="339" y="235" />
            </Array>
            <mxPoint x="18" y="-25" as="offset" />
          </mxGeometry>
        </mxCell>
        <mxCell id="yRoRjuL11nitNJYhxqnK-12" value="Crear cuenta" style="rounded=1;whiteSpace=wrap;html=1;arcSize=40;fontColor=#000000;fillColor=#ffffc0;strokeColor=#ff0000;" parent="1" vertex="1">
          <mxGeometry x="510" y="215" width="120" height="40" as="geometry" />
        </mxCell>
        <mxCell id="yRoRjuL11nitNJYhxqnK-16" value="Comprobaci칩n de&amp;nbsp;&lt;br&gt;credenciales" style="rounded=1;whiteSpace=wrap;html=1;arcSize=40;fontColor=#000000;fillColor=#ffffc0;strokeColor=#ff0000;" parent="1" vertex="1">
          <mxGeometry x="279" y="325" width="120" height="40" as="geometry" />
        </mxCell>
        <mxCell id="yRoRjuL11nitNJYhxqnK-17" value="" style="edgeStyle=orthogonalEdgeStyle;html=1;verticalAlign=bottom;endArrow=open;endSize=8;strokeColor=#ff0000;rounded=0;entryX=0.5;entryY=0;entryDx=0;entryDy=0;" parent="1" source="yRoRjuL11nitNJYhxqnK-16" target="yRoRjuL11nitNJYhxqnK-18" edge="1">
          <mxGeometry relative="1" as="geometry">
            <mxPoint x="354" y="430" as="targetPoint" />
          </mxGeometry>
        </mxCell>
        <mxCell id="yRoRjuL11nitNJYhxqnK-18" value="Credenciales correctas?" style="rhombus;whiteSpace=wrap;html=1;fontColor=#000000;fillColor=#ffffc0;strokeColor=#ff0000;" parent="1" vertex="1">
          <mxGeometry x="289" y="405" width="101" height="85" as="geometry" />
        </mxCell>
        <mxCell id="yRoRjuL11nitNJYhxqnK-19" value="no" style="edgeStyle=orthogonalEdgeStyle;html=1;align=left;verticalAlign=bottom;endArrow=open;endSize=8;strokeColor=#ff0000;rounded=0;entryX=0;entryY=0.5;entryDx=0;entryDy=0;" parent="1" source="yRoRjuL11nitNJYhxqnK-18" target="yRoRjuL11nitNJYhxqnK-3" edge="1">
          <mxGeometry x="-0.9209" relative="1" as="geometry">
            <mxPoint x="489" y="480" as="targetPoint" />
            <Array as="points">
              <mxPoint x="230" y="448" />
              <mxPoint x="230" y="135" />
            </Array>
            <mxPoint as="offset" />
          </mxGeometry>
        </mxCell>
        <mxCell id="yRoRjuL11nitNJYhxqnK-20" value="yes" style="edgeStyle=orthogonalEdgeStyle;html=1;align=left;verticalAlign=top;endArrow=open;endSize=8;strokeColor=#ff0000;rounded=0;entryX=0.5;entryY=-0.099;entryDx=0;entryDy=0;entryPerimeter=0;" parent="1" source="yRoRjuL11nitNJYhxqnK-18" target="DSiCaTpS2AxmlZDK6TL--5" edge="1">
          <mxGeometry x="-1" relative="1" as="geometry">
            <mxPoint x="339" y="550" as="targetPoint" />
          </mxGeometry>
        </mxCell>
        <mxCell id="DSiCaTpS2AxmlZDK6TL--5" value="ver detalles del producto" style="rounded=1;whiteSpace=wrap;html=1;arcSize=40;fontColor=#000000;fillColor=#ffffc0;strokeColor=#ff0000;" vertex="1" parent="1">
          <mxGeometry x="279.5" y="560" width="120" height="40" as="geometry" />
        </mxCell>
        <mxCell id="DSiCaTpS2AxmlZDK6TL--6" value="" style="edgeStyle=orthogonalEdgeStyle;html=1;verticalAlign=bottom;endArrow=open;endSize=8;strokeColor=#ff0000;rounded=0;entryX=0.5;entryY=0;entryDx=0;entryDy=0;" edge="1" source="DSiCaTpS2AxmlZDK6TL--5" parent="1" target="DSiCaTpS2AxmlZDK6TL--8">
          <mxGeometry relative="1" as="geometry">
            <mxPoint x="339.5" y="670" as="targetPoint" />
          </mxGeometry>
        </mxCell>
        <mxCell id="DSiCaTpS2AxmlZDK6TL--8" value="Hay stock del producto?" style="rhombus;whiteSpace=wrap;html=1;fontColor=#000000;fillColor=#ffffc0;strokeColor=#ff0000;" vertex="1" parent="1">
          <mxGeometry x="284" y="650" width="110" height="70" as="geometry" />
        </mxCell>
        <mxCell id="DSiCaTpS2AxmlZDK6TL--9" value="no" style="edgeStyle=orthogonalEdgeStyle;html=1;align=left;verticalAlign=bottom;endArrow=open;endSize=8;strokeColor=#ff0000;rounded=0;entryX=1;entryY=0.5;entryDx=0;entryDy=0;" edge="1" source="DSiCaTpS2AxmlZDK6TL--8" parent="1" target="DSiCaTpS2AxmlZDK6TL--5">
          <mxGeometry x="-1" relative="1" as="geometry">
            <mxPoint x="480" y="770" as="targetPoint" />
            <Array as="points">
              <mxPoint x="410" y="685" />
              <mxPoint x="410" y="580" />
            </Array>
          </mxGeometry>
        </mxCell>
        <mxCell id="DSiCaTpS2AxmlZDK6TL--10" value="yes" style="edgeStyle=orthogonalEdgeStyle;html=1;align=left;verticalAlign=top;endArrow=open;endSize=8;strokeColor=#ff0000;rounded=0;entryX=0.5;entryY=0;entryDx=0;entryDy=0;" edge="1" source="DSiCaTpS2AxmlZDK6TL--8" parent="1" target="DSiCaTpS2AxmlZDK6TL--12">
          <mxGeometry x="-1" relative="1" as="geometry">
            <mxPoint x="340" y="850" as="targetPoint" />
          </mxGeometry>
        </mxCell>
        <mxCell id="DSiCaTpS2AxmlZDK6TL--12" value="A침adir a la cesta" style="rounded=1;whiteSpace=wrap;html=1;arcSize=40;fontColor=#000000;fillColor=#ffffc0;strokeColor=#ff0000;" vertex="1" parent="1">
          <mxGeometry x="279.5" y="770" width="120" height="40" as="geometry" />
        </mxCell>
        <mxCell id="DSiCaTpS2AxmlZDK6TL--13" value="" style="edgeStyle=orthogonalEdgeStyle;html=1;verticalAlign=bottom;endArrow=open;endSize=8;strokeColor=#ff0000;rounded=0;" edge="1" source="DSiCaTpS2AxmlZDK6TL--12" parent="1">
          <mxGeometry relative="1" as="geometry">
            <mxPoint x="340" y="860" as="targetPoint" />
            <Array as="points">
              <mxPoint x="340" y="860" />
              <mxPoint x="340" y="910" />
            </Array>
          </mxGeometry>
        </mxCell>
        <mxCell id="DSiCaTpS2AxmlZDK6TL--14" value="Administrar cesta" style="rounded=1;whiteSpace=wrap;html=1;arcSize=40;fontColor=#000000;fillColor=#ffffc0;strokeColor=#ff0000;" vertex="1" parent="1">
          <mxGeometry x="279.5" y="860" width="120" height="40" as="geometry" />
        </mxCell>
        <mxCell id="DSiCaTpS2AxmlZDK6TL--15" value="" style="edgeStyle=orthogonalEdgeStyle;html=1;verticalAlign=bottom;endArrow=open;endSize=8;strokeColor=#ff0000;rounded=0;" edge="1" source="DSiCaTpS2AxmlZDK6TL--14" parent="1">
          <mxGeometry relative="1" as="geometry">
            <mxPoint x="339.5" y="960" as="targetPoint" />
          </mxGeometry>
        </mxCell>
        <mxCell id="DSiCaTpS2AxmlZDK6TL--16" value="Realizar compra" style="rounded=1;whiteSpace=wrap;html=1;arcSize=40;fontColor=#000000;fillColor=#ffffc0;strokeColor=#ff0000;" vertex="1" parent="1">
          <mxGeometry x="279" y="960" width="120" height="40" as="geometry" />
        </mxCell>
        <mxCell id="DSiCaTpS2AxmlZDK6TL--17" value="" style="edgeStyle=orthogonalEdgeStyle;html=1;verticalAlign=bottom;endArrow=open;endSize=8;strokeColor=#ff0000;rounded=0;entryX=0.5;entryY=0;entryDx=0;entryDy=0;" edge="1" source="DSiCaTpS2AxmlZDK6TL--16" parent="1" target="DSiCaTpS2AxmlZDK6TL--18">
          <mxGeometry relative="1" as="geometry">
            <mxPoint x="339" y="1060" as="targetPoint" />
          </mxGeometry>
        </mxCell>
        <mxCell id="DSiCaTpS2AxmlZDK6TL--18" value="Datos del pedido correcto?" style="rhombus;whiteSpace=wrap;html=1;fontColor=#000000;fillColor=#ffffc0;strokeColor=#ff0000;" vertex="1" parent="1">
          <mxGeometry x="273.75" y="1060" width="130.5" height="100" as="geometry" />
        </mxCell>
        <mxCell id="DSiCaTpS2AxmlZDK6TL--19" value="no" style="edgeStyle=orthogonalEdgeStyle;html=1;align=left;verticalAlign=bottom;endArrow=open;endSize=8;strokeColor=#ff0000;rounded=0;entryX=1;entryY=0.5;entryDx=0;entryDy=0;" edge="1" source="DSiCaTpS2AxmlZDK6TL--18" parent="1" target="DSiCaTpS2AxmlZDK6TL--14">
          <mxGeometry x="-1" relative="1" as="geometry">
            <mxPoint x="480" y="1100" as="targetPoint" />
            <Array as="points">
              <mxPoint x="414" y="1110" />
              <mxPoint x="414" y="880" />
            </Array>
          </mxGeometry>
        </mxCell>
        <mxCell id="DSiCaTpS2AxmlZDK6TL--20" value="yes" style="edgeStyle=orthogonalEdgeStyle;html=1;align=left;verticalAlign=top;endArrow=open;endSize=8;strokeColor=#ff0000;rounded=0;entryX=0.5;entryY=0;entryDx=0;entryDy=0;" edge="1" source="DSiCaTpS2AxmlZDK6TL--18" parent="1" target="DSiCaTpS2AxmlZDK6TL--21">
          <mxGeometry x="-1" relative="1" as="geometry">
            <mxPoint x="340" y="1180" as="targetPoint" />
          </mxGeometry>
        </mxCell>
        <mxCell id="DSiCaTpS2AxmlZDK6TL--21" value="Compra finalizada" style="rounded=1;whiteSpace=wrap;html=1;arcSize=40;fontColor=#000000;fillColor=#ffffc0;strokeColor=#ff0000;" vertex="1" parent="1">
          <mxGeometry x="279.5" y="1220" width="120" height="40" as="geometry" />
        </mxCell>
        <mxCell id="DSiCaTpS2AxmlZDK6TL--22" value="" style="edgeStyle=orthogonalEdgeStyle;html=1;verticalAlign=bottom;endArrow=open;endSize=8;strokeColor=#ff0000;rounded=0;entryX=0.5;entryY=0;entryDx=0;entryDy=0;" edge="1" source="DSiCaTpS2AxmlZDK6TL--21" parent="1" target="DSiCaTpS2AxmlZDK6TL--23">
          <mxGeometry relative="1" as="geometry">
            <mxPoint x="339.5" y="1320" as="targetPoint" />
          </mxGeometry>
        </mxCell>
        <mxCell id="DSiCaTpS2AxmlZDK6TL--23" value="" style="ellipse;html=1;shape=endState;fillColor=#000000;strokeColor=#ff0000;" vertex="1" parent="1">
          <mxGeometry x="324" y="1300" width="30" height="30" as="geometry" />
        </mxCell>
      </root>
    </mxGraphModel>
  </diagram>
</mxfile>
